<svg width="220" height="36" viewBox="0 0 220 36" fill="none" xmlns="http://www.w3.org/2000/svg">
<path fill-rule="evenodd" clip-rule="evenodd" d="M24 3.75H3.75V27C3.75 29.8995 6.1005 32.25 9 32.25H29.25V9C29.25 6.1005 26.8995 3.75 24 3.75ZM0 0V27C0 31.9706 4.02944 36 9 36H33V9C33 4.02944 28.9706 0 24 0H0Z" fill="#FBD84B"/>
<path d="M18.06 13.1926C20.06 13.1926 21.67 13.7808 22.89 14.9572C24.13 16.1335 24.75 17.8785 24.75 20.192V28.5H20.07V20.8978C20.07 19.643 19.79 18.7117 19.23 18.104C18.67 17.4766 17.86 17.1629 16.8 17.1629C15.62 17.1629 14.68 17.5256 13.98 18.251C13.28 18.9568 12.93 20.0155 12.93 21.4272V28.5H8.25V7.5H12.93V15.0748C13.55 14.467 14.3 14.0063 15.18 13.6926C16.06 13.3593 17.02 13.1926 18.06 13.1926Z" fill="#26222F"/>
<path d="M61.4 10.2V27H57.512V20.112H49.88V27H45.992V10.2H49.88V16.824H57.512V10.2H61.4ZM75.4388 21.048V27H71.5508V21L65.0468 10.2H69.1748L73.6628 17.664L78.1508 10.2H81.9668L75.4388 21.048ZM92.7015 10.2C94.1895 10.2 95.4775 10.448 96.5655 10.944C97.6695 11.44 98.5175 12.144 99.1095 13.056C99.7015 13.968 99.9975 15.048 99.9975 16.296C99.9975 17.528 99.7015 18.608 99.1095 19.536C98.5175 20.448 97.6695 21.152 96.5655 21.648C95.4775 22.128 94.1895 22.368 92.7015 22.368H89.3175V27H85.4295V10.2H92.7015ZM92.4855 19.2C93.6535 19.2 94.5415 18.952 95.1495 18.456C95.7575 17.944 96.0615 17.224 96.0615 16.296C96.0615 15.352 95.7575 14.632 95.1495 14.136C94.5415 13.624 93.6535 13.368 92.4855 13.368H89.3175V19.2H92.4855ZM117.781 23.88V27H104.773V10.2H117.469V13.32H108.637V16.968H116.437V19.992H108.637V23.88H117.781ZM133.579 27L130.339 22.32H130.147H126.763V27H122.875V10.2H130.147C131.635 10.2 132.923 10.448 134.011 10.944C135.115 11.44 135.963 12.144 136.555 13.056C137.147 13.968 137.443 15.048 137.443 16.296C137.443 17.544 137.139 18.624 136.531 19.536C135.939 20.432 135.091 21.12 133.987 21.6L137.755 27H133.579ZM133.507 16.296C133.507 15.352 133.203 14.632 132.595 14.136C131.987 13.624 131.099 13.368 129.931 13.368H126.763V19.224H129.931C131.099 19.224 131.987 18.968 132.595 18.456C133.203 17.944 133.507 17.224 133.507 16.296ZM155.531 23.88V27H142.523V10.2H155.219V13.32H146.387V16.968H154.187V19.992H146.387V23.88H155.531ZM171.329 27L168.089 22.32H167.897H164.513V27H160.625V10.2H167.897C169.385 10.2 170.673 10.448 171.761 10.944C172.865 11.44 173.713 12.144 174.305 13.056C174.897 13.968 175.193 15.048 175.193 16.296C175.193 17.544 174.889 18.624 174.281 19.536C173.689 20.432 172.841 21.12 171.737 21.6L175.505 27H171.329ZM171.257 16.296C171.257 15.352 170.953 14.632 170.345 14.136C169.737 13.624 168.849 13.368 167.681 13.368H164.513V19.224H167.681C168.849 19.224 169.737 18.968 170.345 18.456C170.953 17.944 171.257 17.224 171.257 16.296ZM191.625 18.336H195.177V25.152C194.265 25.84 193.209 26.368 192.009 26.736C190.809 27.104 189.601 27.288 188.385 27.288C186.641 27.288 185.073 26.92 183.681 26.184C182.289 25.432 181.193 24.4 180.393 23.088C179.609 21.76 179.217 20.264 179.217 18.6C179.217 16.936 179.609 15.448 180.393 14.136C181.193 12.808 182.297 11.776 183.705 11.04C185.113 10.288 186.697 9.912 188.457 9.912C189.929 9.912 191.265 10.16 192.465 10.656C193.665 11.152 194.673 11.872 195.489 12.816L192.993 15.12C191.793 13.856 190.345 13.224 188.649 13.224C187.577 13.224 186.625 13.448 185.793 13.896C184.961 14.344 184.313 14.976 183.849 15.792C183.385 16.608 183.153 17.544 183.153 18.6C183.153 19.64 183.385 20.568 183.849 21.384C184.313 22.2 184.953 22.84 185.769 23.304C186.601 23.752 187.545 23.976 188.601 23.976C189.721 23.976 190.729 23.736 191.625 23.256V18.336ZM208.925 27.288C207.181 27.288 205.605 26.912 204.197 26.16C202.805 25.408 201.709 24.376 200.909 23.064C200.125 21.736 199.733 20.248 199.733 18.6C199.733 16.952 200.125 15.472 200.909 14.16C201.709 12.832 202.805 11.792 204.197 11.04C205.605 10.288 207.181 9.912 208.925 9.912C210.669 9.912 212.237 10.288 213.629 11.04C215.021 11.792 216.117 12.832 216.917 14.16C217.717 15.472 218.117 16.952 218.117 18.6C218.117 20.248 217.717 21.736 216.917 23.064C216.117 24.376 215.021 25.408 213.629 26.16C212.237 26.912 210.669 27.288 208.925 27.288ZM208.925 23.976C209.917 23.976 210.813 23.752 211.613 23.304C212.413 22.84 213.037 22.2 213.485 21.384C213.949 20.568 214.181 19.64 214.181 18.6C214.181 17.56 213.949 16.632 213.485 15.816C213.037 15 212.413 14.368 211.613 13.92C210.813 13.456 209.917 13.224 208.925 13.224C207.933 13.224 207.037 13.456 206.237 13.92C205.437 14.368 204.805 15 204.341 15.816C203.893 16.632 203.669 17.56 203.669 18.6C203.669 19.64 203.893 20.568 204.341 21.384C204.805 22.2 205.437 22.84 206.237 23.304C207.037 23.752 207.933 23.976 208.925 23.976Z" fill="#26222F"/>
</svg>
